<?xml version="1.0" encoding="utf-8"?>
<!-- Generator: Adobe Illustrator 28.2.0, SVG Export Plug-In . SVG Version: 6.00 Build 0)  -->
<svg version="1.1" id="ae7ad495-543d-4c4b-9483-8059c5566fe6"
	 xmlns="http://www.w3.org/2000/svg" xmlns:xlink="http://www.w3.org/1999/xlink" x="0px" y="0px" viewBox="0 0 1009.5 839.6"
	 style="enable-background:new 0 0 1009.5 839.6;" xml:space="preserve">
<style type="text/css">
	.st0{opacity:0.1;fill:#FF6E00;enable-background:new    ;}
	.st1{opacity:0.1;fill:#38D39F;enable-background:new    ;}
	.st2{fill:#38D39F;}
	.st3{opacity:0.1;enable-background:new    ;}
	.st4{fill:#FFD037;}
	.st5{fill:#A8A8A8;}
	.st6{opacity:0.2;enable-background:new    ;}
</style>
<path class="st0" d="M586.6,111.4c-64.7-2.2-126.4-23.1-185.2-46S284.2,17.2,221,5.1C180.4-2.7,133.9-3.8,101.2,18
	C69.7,39,59.5,75.1,54,108.7c-4.1,25.3-6.5,51.9,4.7,75.5c7.8,16.4,21.7,30.2,31.4,46c33.5,54.7,9.8,122.2-26.4,175.6
	c-17,25.1-36.8,49-49.9,75.7c-13.1,26.7-19.2,57.2-7.7,84.5c11.4,27,38.5,47.2,67.9,61.5c59.7,29,130,37.2,198.6,41.9
	c151.8,10.4,304.5,5.9,456.7,1.4c56.3-1.7,112.9-3.4,168.3-12.1c30.8-4.8,62.6-12.5,84.9-31c28.4-23.5,35.4-63.4,16.4-92.9
	c-31.9-49.5-120-61.8-142.3-114.9c-12.3-29.2,0.3-61.8,18.2-88.9c38.2-58.2,102.3-109.2,105.7-175.7c2.3-45.7-28.5-91.4-76.1-113
	c-49.9-22.6-119.2-19.8-156,17.7C710.4,98.5,643.7,113.4,586.6,111.4z"/>
<ellipse class="st0" cx="483.5" cy="781" rx="304" ry="41.1"/>
<ellipse class="st0" cx="864.2" cy="773.3" rx="26.9" ry="4.5"/>
<ellipse class="st1" cx="91.1" cy="810.7" rx="26.9" ry="4.5"/>
<ellipse class="st1" cx="195.3" cy="835.1" rx="26.9" ry="4.5"/>
<ellipse class="st2" cx="805.2" cy="822.1" rx="40.2" ry="6.8"/>
<path class="st2" d="M821.9,811c1.8-1.5,3.2-3.5,3.8-5.8c0.5-2.3-0.5-5-2.7-5.9c-2.5-0.9-5.1,0.8-7.1,2.5s-4.3,3.7-6.9,3.3
	c2.7-2.5,4-6.2,3.2-9.8c-0.1-0.7-0.4-1.4-0.9-2c-1.4-1.5-3.8-0.8-5.5,0.3c-5.2,3.7-6.7,10.7-6.7,17.1c-0.5-2.3-0.1-4.7-0.1-7
	s-0.7-5-2.6-6.2c-1.2-0.7-2.6-1-4-0.9c-2.3-0.1-4.9,0.2-6.5,1.9c-2,2.1-1.5,5.7,0.3,8s4.3,3.8,6.8,5.4c1.9,1.2,3.6,2.7,4.8,4.6
	c0.1,0.3,0.3,0.5,0.4,0.8h14.6C816.1,815.6,819.1,813.5,821.9,811z"/>
<path class="st2" d="M196.6,723.3c0,0,5.5,7.2-2.5,18s-14.6,20-12,26.8c0,0,12.1-20.2,22-20.4S207.5,735.4,196.6,723.3z"/>
<path class="st3" d="M196.6,723.3c0.5,0.7,0.9,1.5,1.1,2.3c9.6,11.3,14.8,21.8,5.5,22.1c-8.6,0.2-18.9,15.7-21.4,19.5
	c0.1,0.3,0.2,0.6,0.3,0.9c0,0,12.1-20.2,22-20.4S207.5,735.4,196.6,723.3z"/>
<path class="st4" d="M206.9,732.4c0,2.5-0.3,4.6-0.6,4.6s-0.6-2-0.6-4.6s0.4-1.3,0.7-1.3S206.9,729.9,206.9,732.4z"/>
<path class="st4" d="M210.4,735.5c-2.2,1.2-4.2,1.9-4.3,1.6s1.5-1.5,3.7-2.8s1.4-0.3,1.5,0S212.6,734.2,210.4,735.5z"/>
<path class="st2" d="M167.6,723.3c0,0-5.5,7.2,2.5,18s14.6,20,12,26.8c0,0-12.1-20.2-22-20.4S156.8,735.4,167.6,723.3z"/>
<path class="st3" d="M167.6,723.3c-0.5,0.7-0.9,1.5-1.1,2.3c-9.6,11.3-14.7,21.8-5.5,22.1c8.6,0.2,19,15.7,21.4,19.5
	c-0.1,0.3-0.2,0.6-0.3,0.9c0,0-12.1-20.2-22-20.4S156.8,735.4,167.6,723.3z"/>
<path class="st4" d="M157.4,732.4c0,2.5,0.3,4.6,0.6,4.6s0.6-2,0.6-4.6s-0.4-1.3-0.7-1.3C157.6,731.1,157.4,729.9,157.4,732.4z"/>
<path class="st4" d="M153.9,735.5c2.2,1.2,4.1,1.9,4.3,1.6s-1.5-1.5-3.7-2.8s-1.3-0.3-1.5,0C152.8,734.7,151.7,734.2,153.9,735.5z"
	/>
<path class="st5" d="M159.2,767.1c0,0,15.4-0.5,20-3.8s23.6-7.2,24.8-2s23.1,26.3,5.8,26.4s-40.3-2.7-44.9-5.5
	S159.2,767.1,159.2,767.1z"/>
<path class="st6" d="M210,786c-17.3,0.1-40.3-2.7-44.9-5.5c-3.5-2.2-4.9-9.8-5.4-13.4h-0.5c0,0,1,12.4,5.6,15.2s27.6,5.7,44.9,5.5
	c5,0,6.7-1.8,6.6-4.5C215.6,785,213.7,786,210,786z"/>
<image style="overflow:visible;" width="156" height="146" xlink:href="D:\Usuários\Claudio Gomes\Desktop\DECK_TRATTORIA-removebg-preview.png"  transform="matrix(1.5784 0 0 1.5784 140.684 98.5521)">
</image>
<image style="overflow:visible;" width="190" height="134" xlink:href="D:\Usuários\Claudio Gomes\Desktop\DECK_CHURRASQUIN-removebg-preview.png"  transform="matrix(1.2947 0 0 1.2947 584.2343 155.5029)">
</image>
<image style="overflow:visible;" width="225" height="225" xlink:href="D:\Usuários\Claudio Gomes\Downloads\DECK_SUSHI-removebg-preview.png"  transform="matrix(1.3068 0 0 1.3068 340.0706 346.7614)">
</image>
</svg>
